<?xml version="1.0" encoding="UTF-8"?>
<svg xmlns="http://www.w3.org/2000/svg" version="1.1" xmlns:xlink="http://www.w3.org/1999/xlink" viewBox="0 0 1000 1000">
  <!-- Generator: Adobe Illustrator 30.0.0, SVG Export Plug-In . SVG Version: 2.1.1 Build 123)  -->
  <defs>
    <style>
      .st0 {
        display: none;
      }

      .st1 {
        opacity: .6;
      }

      .st2 {
        fill: url(#linear-gradient);
      }
    </style>
    <linearGradient id="linear-gradient" x1="693" y1="832.2" x2="309.4" y2="167.8" gradientUnits="userSpaceOnUse">
      <stop offset="0" stop-color="#27dca7"/>
      <stop offset="1" stop-color="#227071"/>
    </linearGradient>
  </defs>
  <g id="Layer_2">
    <path class="st2" d="M388.6,714.4v158.4c-96.6-36.6-175-103.2-215.3-209.7t0,0c-1.2-3.2-2.4-6.4-3.5-9.6-5-14.1-9.3-28.6-12.9-43.5h0c-26.4-56.4-78-98.6-140.3-112.1h.1c63.3-13.9,115.5-57.3,141.5-115h0c3.3-13,7.2-25.7,11.6-38.1.9-2.5,1.8-5,2.7-7.4,0,0,0,0,0,0,40.1-107.6,118.8-171.4,216.1-208.3v154.8c-20.6,14.2-39,32.2-54.5,53.2-3.5,4.8-6.9,9.8-10.1,14.9-8.1,12.9-15.2,26.6-21.1,41.2-3.4,8.4-6.4,17-9,25.9-28.7,39.4-51.8,68-101,78.8h-.1c48.7,10.7,71.3,38.8,100,77.4h0c2.8,10.3,6.2,20.3,10.1,29.9,5.9,14.5,13,28.3,21.1,41.2,3.2,5.1,6.6,10.1,10.1,14.9,15.5,21,33.9,39,54.5,53.2ZM983.2,497.8c-63.3-13.8-115.5-57.2-141.5-114.9h0c-3.3-13-7.2-25.7-11.6-38.1-.9-2.5-1.8-5-2.7-7.4,0,0,0,0,0,0-40.1-107.6-118.8-171.4-216.1-208.3v154.8c20.8,14.3,39.3,32.5,54.9,53.8,3.3,4.5,6.4,9.1,9.4,13.8h0c8.2,13,15.4,26.9,21.4,41.7.8,2,1.6,4,2.4,6.1.7,1.9,1.4,3.9,2.2,5.9.1.3.2.7.3,1,.5,1.4,1,2.9,1.5,4.3.3.7.5,1.5.7,2.3.1.4.3.8.4,1.2.3,1,.6,2,.9,3,.3.8.5,1.7.7,2.5h0c28.7,39.2,53.9,67.8,103,78.5h.1c-48.5,10.7-73.3,38.6-102,77.1-.4,1.3-.7,2.6-1.1,3.9-.3,1.1-.6,2.3-1,3.4,0,.3-.2.7-.3,1.1-.6,2-1.2,3.9-1.9,5.8-.5,1.7-1.1,3.3-1.7,5-.6,1.7-1.2,3.4-1.9,5-.8,2.1-1.5,4.1-2.4,6.1-6,14.7-13.1,28.6-21.4,41.6-3,4.7-6.1,9.4-9.4,13.8-15.5,21.2-34.1,39.4-54.9,53.8v158.4c96.6-36.6,175-103.2,215.3-209.7t0,0c1.2-3.2,2.4-6.4,3.5-9.6,5-14.1,9.3-28.6,12.9-43.5h0c26.4-56.4,78-98.6,140.3-112.1h-.1ZM500.4,339c-55.5,117.2-161,158.3-161,158.3,121.7,68.9,161,158.3,161,158.3,0,0,39.4-89.5,161-158.3,0,0-105.6-41.1-161-158.3Z"/>
  </g>
  <g id="Layer_1" class="st0">
    <image class="st1" width="252" height="176" transform="translate(94.3 199.1) scale(3.1)" xlink:href="vercel-1.png"/>
  </g>
</svg>